<svg width="500" height="500" viewBox="0 0 500 500" fill="none" xmlns="http://www.w3.org/2000/svg">
<path d="M271.54 11.5801C271.54 11.5801 185.32 -3.63988 120.85 56.0801C56.3799 115.8 42.3399 214.33 28.8499 293.65C15.3599 372.97 54.7199 444.3 122.65 468C190.58 491.7 216.96 434.49 298.65 417.55C380.34 400.61 405.9 409 461.18 348.52C516.46 288.04 497.91 171.43 421.1 96.2501C344.29 21.0701 271.54 11.5801 271.54 11.5801Z" fill="#263238"/>
<path d="M252.72 319.75C323.567 319.75 381 262.317 381 191.47C381 120.623 323.567 63.1899 252.72 63.1899C181.873 63.1899 124.44 120.623 124.44 191.47C124.44 262.317 181.873 319.75 252.72 319.75Z" fill="white"/>
<path d="M338.287 277.037C385.544 229.779 385.544 153.16 338.287 105.903C291.029 58.6454 214.41 58.6454 167.153 105.903C119.895 153.16 119.895 229.779 167.153 277.037C214.41 324.294 291.029 324.294 338.287 277.037Z" fill="#DBDBDB"/>
<path d="M143.58 191C139.58 190.48 139.14 190.05 138.58 186C138.06 190 137.64 190.44 133.58 191C137.58 191.52 138.02 191.94 138.58 196C139.14 191.92 139.56 191.5 143.58 191Z" fill="#E5E5E5"/>
<path d="M434.6 282.61C439.173 282.61 442.88 278.903 442.88 274.33C442.88 269.757 439.173 266.05 434.6 266.05C430.027 266.05 426.32 269.757 426.32 274.33C426.32 278.903 430.027 282.61 434.6 282.61Z" fill="#E5E5E5"/>
<path d="M142.43 83.34C147.003 83.34 150.71 79.6329 150.71 75.06C150.71 70.4871 147.003 66.78 142.43 66.78C137.857 66.78 134.15 70.4871 134.15 75.06C134.15 79.6329 137.857 83.34 142.43 83.34Z" fill="#E5E5E5"/>
<path d="M374.04 317.8C377.691 317.8 380.65 314.841 380.65 311.19C380.65 307.539 377.691 304.58 374.04 304.58C370.39 304.58 367.43 307.539 367.43 311.19C367.43 314.841 370.39 317.8 374.04 317.8Z" fill="#E5E5E5"/>
<path d="M389.653 268.738C391.131 265.4 389.623 261.496 386.285 260.018C382.947 258.54 379.043 260.048 377.565 263.386C376.087 266.724 377.595 270.628 380.933 272.106C384.271 273.584 388.175 272.076 389.653 268.738Z" fill="#E5E5E5"/>
<path d="M109.97 283.53C113.621 283.53 116.58 280.571 116.58 276.92C116.58 273.269 113.621 270.31 109.97 270.31C106.32 270.31 103.36 273.269 103.36 276.92C103.36 280.571 106.32 283.53 109.97 283.53Z" fill="#E5E5E5"/>
<path d="M176.16 368.79C179.811 368.79 182.77 365.831 182.77 362.18C182.77 358.529 179.811 355.57 176.16 355.57C172.509 355.57 169.55 358.529 169.55 362.18C169.55 365.831 172.509 368.79 176.16 368.79Z" fill="#E5E5E5"/>
<path d="M92.9162 184.786C95.4976 182.204 95.4976 178.019 92.9162 175.438C90.3349 172.856 86.1496 172.856 83.5683 175.438C80.9869 178.019 80.9869 182.204 83.5683 184.786C86.1496 187.367 90.3349 187.367 92.9162 184.786Z" fill="#E5E5E5"/>
<path d="M41.8101 322.13C43.8646 322.13 45.5301 320.464 45.5301 318.41C45.5301 316.355 43.8646 314.69 41.8101 314.69C39.7556 314.69 38.0901 316.355 38.0901 318.41C38.0901 320.464 39.7556 322.13 41.8101 322.13Z" fill="#E5E5E5"/>
<path d="M401.39 329.04C403.445 329.04 405.11 327.375 405.11 325.32C405.11 323.266 403.445 321.6 401.39 321.6C399.336 321.6 397.67 323.266 397.67 325.32C397.67 327.375 399.336 329.04 401.39 329.04Z" fill="#E5E5E5"/>
<path d="M358.16 100.85C360.215 100.85 361.88 99.1846 361.88 97.1301C361.88 95.0757 360.215 93.4102 358.16 93.4102C356.106 93.4102 354.44 95.0757 354.44 97.1301C354.44 99.1846 356.106 100.85 358.16 100.85Z" fill="#E5E5E5"/>
<path d="M429.05 179.64C431.105 179.64 432.77 177.974 432.77 175.92C432.77 173.865 431.105 172.2 429.05 172.2C426.996 172.2 425.33 173.865 425.33 175.92C425.33 177.974 426.996 179.64 429.05 179.64Z" fill="#E5E5E5"/>
<path d="M163.32 360.66C165.375 360.66 167.04 358.994 167.04 356.94C167.04 354.885 165.375 353.22 163.32 353.22C161.266 353.22 159.6 354.885 159.6 356.94C159.6 358.994 161.266 360.66 163.32 360.66Z" fill="#E5E5E5"/>
<path d="M329 437H171V488H329V437Z" fill="#949494" stroke="#8C8C8C" stroke-linecap="round" stroke-linejoin="round"/>
<path d="M238.16 63H189.16V488H238.16V63Z" fill="#A3A3A3" stroke="#8C8C8C" stroke-linecap="round" stroke-linejoin="round"/>
<path d="M226.16 63H201.16V488H226.16V63Z" fill="#4F4F4F" stroke="#8C8C8C" stroke-linecap="round" stroke-linejoin="round"/>
<path d="M238.16 63H189.16V84H238.16V63Z" fill="#A3A3A3" stroke="#8C8C8C" stroke-linecap="round" stroke-linejoin="round"/>
<path d="M236.42 89.6499H230.95V95.7599H236.42V89.6499Z" fill="#949494" stroke="#8C8C8C" stroke-linecap="round" stroke-linejoin="round"/>
<path d="M236.42 102.9H230.95V109.01H236.42V102.9Z" fill="#949494" stroke="#8C8C8C" stroke-linecap="round" stroke-linejoin="round"/>
<path d="M236.42 116.15H230.95V122.26H236.42V116.15Z" fill="#949494" stroke="#8C8C8C" stroke-linecap="round" stroke-linejoin="round"/>
<path d="M236.42 129.4H230.95V135.51H236.42V129.4Z" fill="#949494" stroke="#8C8C8C" stroke-linecap="round" stroke-linejoin="round"/>
<path d="M236.42 142.65H230.95V148.76H236.42V142.65Z" fill="#949494" stroke="#8C8C8C" stroke-linecap="round" stroke-linejoin="round"/>
<path d="M236.42 155.89H230.95V162H236.42V155.89Z" fill="#949494" stroke="#8C8C8C" stroke-linecap="round" stroke-linejoin="round"/>
<path d="M236.42 169.14H230.95V175.25H236.42V169.14Z" fill="#949494" stroke="#8C8C8C" stroke-linecap="round" stroke-linejoin="round"/>
<path d="M236.42 182.39H230.95V188.5H236.42V182.39Z" fill="#949494" stroke="#8C8C8C" stroke-linecap="round" stroke-linejoin="round"/>
<path d="M236.42 195.64H230.95V201.75H236.42V195.64Z" fill="#949494" stroke="#8C8C8C" stroke-linecap="round" stroke-linejoin="round"/>
<path d="M236.42 208.88H230.95V214.99H236.42V208.88Z" fill="#949494" stroke="#8C8C8C" stroke-linecap="round" stroke-linejoin="round"/>
<path d="M236.42 222.13H230.95V228.24H236.42V222.13Z" fill="#949494" stroke="#8C8C8C" stroke-linecap="round" stroke-linejoin="round"/>
<path d="M236.42 235.38H230.95V241.49H236.42V235.38Z" fill="#949494" stroke="#8C8C8C" stroke-linecap="round" stroke-linejoin="round"/>
<path d="M236.42 248.63H230.95V254.74H236.42V248.63Z" fill="#949494" stroke="#8C8C8C" stroke-linecap="round" stroke-linejoin="round"/>
<path d="M236.42 261.88H230.95V267.99H236.42V261.88Z" fill="#949494" stroke="#8C8C8C" stroke-linecap="round" stroke-linejoin="round"/>
<path d="M236.42 275.12H230.95V281.23H236.42V275.12Z" fill="#949494" stroke="#8C8C8C" stroke-linecap="round" stroke-linejoin="round"/>
<path d="M236.42 288.37H230.95V294.48H236.42V288.37Z" fill="#949494" stroke="#8C8C8C" stroke-linecap="round" stroke-linejoin="round"/>
<path d="M236.42 301.62H230.95V307.73H236.42V301.62Z" fill="#949494" stroke="#8C8C8C" stroke-linecap="round" stroke-linejoin="round"/>
<path d="M236.42 314.87H230.95V320.98H236.42V314.87Z" fill="#949494" stroke="#8C8C8C" stroke-linecap="round" stroke-linejoin="round"/>
<path d="M236.42 328.11H230.95V334.22H236.42V328.11Z" fill="#949494" stroke="#8C8C8C" stroke-linecap="round" stroke-linejoin="round"/>
<path d="M236.42 341.36H230.95V347.47H236.42V341.36Z" fill="#949494" stroke="#8C8C8C" stroke-linecap="round" stroke-linejoin="round"/>
<path d="M236.42 354.61H230.95V360.72H236.42V354.61Z" fill="#949494" stroke="#8C8C8C" stroke-linecap="round" stroke-linejoin="round"/>
<path d="M236.42 367.86H230.95V373.97H236.42V367.86Z" fill="#949494" stroke="#8C8C8C" stroke-linecap="round" stroke-linejoin="round"/>
<path d="M236.42 381.1H230.95V387.21H236.42V381.1Z" fill="#949494" stroke="#8C8C8C" stroke-linecap="round" stroke-linejoin="round"/>
<path d="M236.42 394.35H230.95V400.46H236.42V394.35Z" fill="#949494" stroke="#8C8C8C" stroke-linecap="round" stroke-linejoin="round"/>
<path d="M236.42 407.6H230.95V413.71H236.42V407.6Z" fill="#949494" stroke="#8C8C8C" stroke-linecap="round" stroke-linejoin="round"/>
<path d="M236.42 420.85H230.95V426.96H236.42V420.85Z" fill="#949494" stroke="#8C8C8C" stroke-linecap="round" stroke-linejoin="round"/>
<path d="M236.42 434.1H230.95V440.21H236.42V434.1Z" fill="#949494" stroke="#8C8C8C" stroke-linecap="round" stroke-linejoin="round"/>
<path d="M236.42 447.34H230.95V453.45H236.42V447.34Z" fill="#949494" stroke="#8C8C8C" stroke-linecap="round" stroke-linejoin="round"/>
<path d="M236.42 460.59H230.95V466.7H236.42V460.59Z" fill="#949494" stroke="#8C8C8C" stroke-linecap="round" stroke-linejoin="round"/>
<path d="M237.81 473.84H226.6V479.95H237.81V473.84Z" fill="#949494" stroke="#8C8C8C" stroke-linecap="round" stroke-linejoin="round"/>
<path d="M226.06 142.19H114.79V155.62H226.06V142.19Z" fill="#92E3A9"/>
<path d="M226.06 140.31H114.79V153.74H226.06V140.31Z" fill="#949494" stroke="#8C8C8C" stroke-linecap="round" stroke-linejoin="round"/>
<path d="M226.06 129.76H114.79V153.74H226.06V129.76Z" stroke="#8C8C8C" stroke-linecap="round" stroke-linejoin="round"/>
<path d="M226.06 140.31H190.64V153.74H226.06V140.31Z" fill="#707070" stroke="#8C8C8C" stroke-linecap="round" stroke-linejoin="round"/>
<path d="M114.79 140.31L127.06 130.24" stroke="#8C8C8C" stroke-linecap="round" stroke-linejoin="round"/>
<path d="M127.06 140.31L114.79 130.24" stroke="#8C8C8C" stroke-linecap="round" stroke-linejoin="round"/>
<path d="M127.61 140.31L139.88 130.24" stroke="#8C8C8C" stroke-linecap="round" stroke-linejoin="round"/>
<path d="M139.88 140.31L127.61 130.24" stroke="#8C8C8C" stroke-linecap="round" stroke-linejoin="round"/>
<path d="M140.43 140.31L152.7 130.24" stroke="#8C8C8C" stroke-linecap="round" stroke-linejoin="round"/>
<path d="M152.7 140.31L140.43 130.24" stroke="#8C8C8C" stroke-linecap="round" stroke-linejoin="round"/>
<path d="M153.26 140.31L165.53 130.24" stroke="#8C8C8C" stroke-linecap="round" stroke-linejoin="round"/>
<path d="M165.53 140.31L153.26 130.24" stroke="#8C8C8C" stroke-linecap="round" stroke-linejoin="round"/>
<path d="M166.08 140.31L178.35 130.24" stroke="#8C8C8C" stroke-linecap="round" stroke-linejoin="round"/>
<path d="M178.35 140.31L166.08 130.24" stroke="#8C8C8C" stroke-linecap="round" stroke-linejoin="round"/>
<path d="M178.9 140.31L191.17 130.24" stroke="#8C8C8C" stroke-linecap="round" stroke-linejoin="round"/>
<path d="M191.17 140.31L178.9 130.24" stroke="#8C8C8C" stroke-linecap="round" stroke-linejoin="round"/>
<path d="M191.73 140.31L204 130.24" stroke="#8C8C8C" stroke-linecap="round" stroke-linejoin="round"/>
<path d="M204 140.31L191.73 130.24" stroke="#8C8C8C" stroke-linecap="round" stroke-linejoin="round"/>
<path d="M204.55 140.31L216.82 130.24" stroke="#8C8C8C" stroke-linecap="round" stroke-linejoin="round"/>
<path d="M216.82 140.31L204.55 130.24" stroke="#8C8C8C" stroke-linecap="round" stroke-linejoin="round"/>
<path d="M226.06 219.4H114.79V232.83H226.06V219.4Z" fill="#92E3A9"/>
<path d="M226.06 217.52H114.79V230.95H226.06V217.52Z" fill="#949494" stroke="#8C8C8C" stroke-linecap="round" stroke-linejoin="round"/>
<path d="M226.06 206.97H114.79V230.95H226.06V206.97Z" stroke="#8C8C8C" stroke-linecap="round" stroke-linejoin="round"/>
<path d="M226.06 217.52H190.64V230.95H226.06V217.52Z" fill="#707070" stroke="#8C8C8C" stroke-linecap="round" stroke-linejoin="round"/>
<path d="M114.79 217.52L127.06 207.45" stroke="#8C8C8C" stroke-linecap="round" stroke-linejoin="round"/>
<path d="M127.06 217.52L114.79 207.45" stroke="#8C8C8C" stroke-linecap="round" stroke-linejoin="round"/>
<path d="M127.61 217.52L139.88 207.45" stroke="#8C8C8C" stroke-linecap="round" stroke-linejoin="round"/>
<path d="M139.88 217.52L127.61 207.45" stroke="#8C8C8C" stroke-linecap="round" stroke-linejoin="round"/>
<path d="M140.43 217.52L152.7 207.45" stroke="#8C8C8C" stroke-linecap="round" stroke-linejoin="round"/>
<path d="M152.7 217.52L140.43 207.45" stroke="#8C8C8C" stroke-linecap="round" stroke-linejoin="round"/>
<path d="M153.26 217.52L165.53 207.45" stroke="#8C8C8C" stroke-linecap="round" stroke-linejoin="round"/>
<path d="M165.53 217.52L153.26 207.45" stroke="#8C8C8C" stroke-linecap="round" stroke-linejoin="round"/>
<path d="M166.08 217.52L178.35 207.45" stroke="#8C8C8C" stroke-linecap="round" stroke-linejoin="round"/>
<path d="M178.35 217.52L166.08 207.45" stroke="#8C8C8C" stroke-linecap="round" stroke-linejoin="round"/>
<path d="M178.9 217.52L191.17 207.45" stroke="#8C8C8C" stroke-linecap="round" stroke-linejoin="round"/>
<path d="M191.17 217.52L178.9 207.45" stroke="#8C8C8C" stroke-linecap="round" stroke-linejoin="round"/>
<path d="M191.73 217.52L204 207.45" stroke="#8C8C8C" stroke-linecap="round" stroke-linejoin="round"/>
<path d="M204 217.52L191.73 207.45" stroke="#8C8C8C" stroke-linecap="round" stroke-linejoin="round"/>
<path d="M204.55 217.52L216.82 207.45" stroke="#8C8C8C" stroke-linecap="round" stroke-linejoin="round"/>
<path d="M216.82 217.52L204.55 207.45" stroke="#8C8C8C" stroke-linecap="round" stroke-linejoin="round"/>
<path d="M263.78 488H312.78L312.78 63H263.78L263.78 488Z" fill="#A3A3A3" stroke="#8C8C8C" stroke-linecap="round" stroke-linejoin="round"/>
<path d="M275.78 488H300.78L300.78 63H275.78L275.78 488Z" fill="#4F4F4F" stroke="#8C8C8C" stroke-linecap="round" stroke-linejoin="round"/>
<path d="M263.78 84H312.78V63L263.78 63V84Z" fill="#A3A3A3" stroke="#8C8C8C" stroke-linecap="round" stroke-linejoin="round"/>
<path d="M265.53 95.77H271V89.66H265.53V95.77Z" fill="#949494" stroke="#8C8C8C" stroke-linecap="round" stroke-linejoin="round"/>
<path d="M265.53 109.02H271V102.91H265.53V109.02Z" fill="#949494" stroke="#8C8C8C" stroke-linecap="round" stroke-linejoin="round"/>
<path d="M265.53 122.26H271V116.15H265.53V122.26Z" fill="#949494" stroke="#8C8C8C" stroke-linecap="round" stroke-linejoin="round"/>
<path d="M265.53 135.51H271V129.4H265.53V135.51Z" fill="#949494" stroke="#8C8C8C" stroke-linecap="round" stroke-linejoin="round"/>
<path d="M265.53 148.76H271V142.65H265.53V148.76Z" fill="#949494" stroke="#8C8C8C" stroke-linecap="round" stroke-linejoin="round"/>
<path d="M265.53 162.01H271V155.9H265.53V162.01Z" fill="#949494" stroke="#8C8C8C" stroke-linecap="round" stroke-linejoin="round"/>
<path d="M265.53 175.26H271V169.15H265.53V175.26Z" fill="#949494" stroke="#8C8C8C" stroke-linecap="round" stroke-linejoin="round"/>
<path d="M265.53 188.5H271V182.39H265.53V188.5Z" fill="#949494" stroke="#8C8C8C" stroke-linecap="round" stroke-linejoin="round"/>
<path d="M265.53 201.75H271V195.64H265.53V201.75Z" fill="#949494" stroke="#8C8C8C" stroke-linecap="round" stroke-linejoin="round"/>
<path d="M265.53 215H271V208.89H265.53V215Z" fill="#949494" stroke="#8C8C8C" stroke-linecap="round" stroke-linejoin="round"/>
<path d="M265.53 228.25H271V222.14H265.53V228.25Z" fill="#949494" stroke="#8C8C8C" stroke-linecap="round" stroke-linejoin="round"/>
<path d="M265.53 241.49H271V235.38H265.53V241.49Z" fill="#949494" stroke="#8C8C8C" stroke-linecap="round" stroke-linejoin="round"/>
<path d="M265.53 254.74H271V248.63H265.53V254.74Z" fill="#949494" stroke="#8C8C8C" stroke-linecap="round" stroke-linejoin="round"/>
<path d="M265.53 267.98H271V261.87H265.53V267.98Z" fill="#949494" stroke="#8C8C8C" stroke-linecap="round" stroke-linejoin="round"/>
<path d="M265.53 281.24H271V275.13H265.53V281.24Z" fill="#949494" stroke="#8C8C8C" stroke-linecap="round" stroke-linejoin="round"/>
<path d="M265.53 294.49H271V288.38H265.53V294.49Z" fill="#949494" stroke="#8C8C8C" stroke-linecap="round" stroke-linejoin="round"/>
<path d="M265.53 307.73H271V301.62H265.53V307.73Z" fill="#949494" stroke="#8C8C8C" stroke-linecap="round" stroke-linejoin="round"/>
<path d="M265.53 320.98H271V314.87H265.53V320.98Z" fill="#949494" stroke="#8C8C8C" stroke-linecap="round" stroke-linejoin="round"/>
<path d="M265.53 334.23H271V328.12H265.53V334.23Z" fill="#949494" stroke="#8C8C8C" stroke-linecap="round" stroke-linejoin="round"/>
<path d="M265.53 347.48H271V341.37H265.53V347.48Z" fill="#949494" stroke="#8C8C8C" stroke-linecap="round" stroke-linejoin="round"/>
<path d="M265.53 360.72H271V354.61H265.53V360.72Z" fill="#949494" stroke="#8C8C8C" stroke-linecap="round" stroke-linejoin="round"/>
<path d="M265.53 373.97H271V367.86H265.53V373.97Z" fill="#949494" stroke="#8C8C8C" stroke-linecap="round" stroke-linejoin="round"/>
<path d="M265.53 387.22H271V381.11H265.53V387.22Z" fill="#949494" stroke="#8C8C8C" stroke-linecap="round" stroke-linejoin="round"/>
<path d="M265.53 400.47H271V394.36H265.53V400.47Z" fill="#949494" stroke="#8C8C8C" stroke-linecap="round" stroke-linejoin="round"/>
<path d="M265.53 413.71H271V407.6H265.53V413.71Z" fill="#949494" stroke="#8C8C8C" stroke-linecap="round" stroke-linejoin="round"/>
<path d="M265.53 426.96H271V420.85H265.53V426.96Z" fill="#949494" stroke="#8C8C8C" stroke-linecap="round" stroke-linejoin="round"/>
<path d="M265.53 440.21H271V434.1H265.53V440.21Z" fill="#949494" stroke="#8C8C8C" stroke-linecap="round" stroke-linejoin="round"/>
<path d="M265.53 453.46H271V447.35H265.53V453.46Z" fill="#949494" stroke="#8C8C8C" stroke-linecap="round" stroke-linejoin="round"/>
<path d="M265.53 466.71H271V460.6H265.53V466.71Z" fill="#949494" stroke="#8C8C8C" stroke-linecap="round" stroke-linejoin="round"/>
<path d="M264.14 479.95H275.35V473.84H264.14V479.95Z" fill="#949494" stroke="#8C8C8C" stroke-linecap="round" stroke-linejoin="round"/>
<path d="M275.76 155.61H387.03V142.18H275.76V155.61Z" fill="#92E3A9"/>
<path d="M275.76 153.75H387.03V140.32H275.76V153.75Z" fill="#949494" stroke="#8C8C8C" stroke-linecap="round" stroke-linejoin="round"/>
<path d="M275.76 153.75H387.03V129.77H275.76V153.75Z" stroke="#8C8C8C" stroke-linecap="round" stroke-linejoin="round"/>
<path d="M275.76 153.75H311.18V140.32H275.76V153.75Z" fill="#707070" stroke="#8C8C8C" stroke-linecap="round" stroke-linejoin="round"/>
<path d="M387.03 140.31L374.76 130.24" stroke="#8C8C8C" stroke-linecap="round" stroke-linejoin="round"/>
<path d="M374.76 140.31L387.03 130.24" stroke="#8C8C8C" stroke-linecap="round" stroke-linejoin="round"/>
<path d="M374.21 140.31L361.94 130.24" stroke="#8C8C8C" stroke-linecap="round" stroke-linejoin="round"/>
<path d="M361.94 140.31L374.21 130.24" stroke="#8C8C8C" stroke-linecap="round" stroke-linejoin="round"/>
<path d="M361.39 140.31L349.12 130.24" stroke="#8C8C8C" stroke-linecap="round" stroke-linejoin="round"/>
<path d="M349.12 140.31L361.39 130.24" stroke="#8C8C8C" stroke-linecap="round" stroke-linejoin="round"/>
<path d="M348.56 140.31L336.29 130.24" stroke="#8C8C8C" stroke-linecap="round" stroke-linejoin="round"/>
<path d="M336.29 140.31L348.56 130.24" stroke="#8C8C8C" stroke-linecap="round" stroke-linejoin="round"/>
<path d="M335.74 140.31L323.47 130.24" stroke="#8C8C8C" stroke-linecap="round" stroke-linejoin="round"/>
<path d="M323.47 140.31L335.74 130.24" stroke="#8C8C8C" stroke-linecap="round" stroke-linejoin="round"/>
<path d="M322.92 140.31L310.65 130.24" stroke="#8C8C8C" stroke-linecap="round" stroke-linejoin="round"/>
<path d="M310.65 140.31L322.92 130.24" stroke="#8C8C8C" stroke-linecap="round" stroke-linejoin="round"/>
<path d="M310.09 140.31L297.82 130.24" stroke="#8C8C8C" stroke-linecap="round" stroke-linejoin="round"/>
<path d="M297.82 140.31L310.09 130.24" stroke="#8C8C8C" stroke-linecap="round" stroke-linejoin="round"/>
<path d="M297.27 140.31L285 130.24" stroke="#8C8C8C" stroke-linecap="round" stroke-linejoin="round"/>
<path d="M285 140.31L297.27 130.24" stroke="#8C8C8C" stroke-linecap="round" stroke-linejoin="round"/>
<path d="M275.76 232.82H387.03V219.39H275.76V232.82Z" fill="#92E3A9"/>
<path d="M275.76 230.96H387.03V217.53H275.76V230.96Z" fill="#949494" stroke="#8C8C8C" stroke-linecap="round" stroke-linejoin="round"/>
<path d="M275.76 230.96H387.03V206.98H275.76V230.96Z" stroke="#8C8C8C" stroke-linecap="round" stroke-linejoin="round"/>
<path d="M275.76 230.96H311.18V217.53H275.76V230.96Z" fill="#707070" stroke="#8C8C8C" stroke-linecap="round" stroke-linejoin="round"/>
<path d="M387.03 217.52L374.76 207.45" stroke="#8C8C8C" stroke-linecap="round" stroke-linejoin="round"/>
<path d="M374.76 217.52L387.03 207.45" stroke="#8C8C8C" stroke-linecap="round" stroke-linejoin="round"/>
<path d="M374.21 217.52L361.94 207.45" stroke="#8C8C8C" stroke-linecap="round" stroke-linejoin="round"/>
<path d="M361.94 217.52L374.21 207.45" stroke="#8C8C8C" stroke-linecap="round" stroke-linejoin="round"/>
<path d="M361.39 217.52L349.12 207.45" stroke="#8C8C8C" stroke-linecap="round" stroke-linejoin="round"/>
<path d="M349.12 217.52L361.39 207.45" stroke="#8C8C8C" stroke-linecap="round" stroke-linejoin="round"/>
<path d="M348.56 217.52L336.29 207.45" stroke="#8C8C8C" stroke-linecap="round" stroke-linejoin="round"/>
<path d="M336.29 217.52L348.56 207.45" stroke="#8C8C8C" stroke-linecap="round" stroke-linejoin="round"/>
<path d="M335.74 217.52L323.47 207.45" stroke="#8C8C8C" stroke-linecap="round" stroke-linejoin="round"/>
<path d="M323.47 217.52L335.74 207.45" stroke="#8C8C8C" stroke-linecap="round" stroke-linejoin="round"/>
<path d="M322.92 217.52L310.65 207.45" stroke="#8C8C8C" stroke-linecap="round" stroke-linejoin="round"/>
<path d="M310.65 217.52L322.92 207.45" stroke="#8C8C8C" stroke-linecap="round" stroke-linejoin="round"/>
<path d="M310.09 217.52L297.82 207.45" stroke="#8C8C8C" stroke-linecap="round" stroke-linejoin="round"/>
<path d="M297.82 217.52L310.09 207.45" stroke="#8C8C8C" stroke-linecap="round" stroke-linejoin="round"/>
<path d="M297.27 217.52L285 207.45" stroke="#8C8C8C" stroke-linecap="round" stroke-linejoin="round"/>
<path d="M285 217.52L297.27 207.45" stroke="#8C8C8C" stroke-linecap="round" stroke-linejoin="round"/>
<path d="M265.27 63H236.16V488H265.27V63Z" fill="#D9D9D9" stroke="#8C8C8C" stroke-linecap="round" stroke-linejoin="round"/>
<path d="M320 426H311.82H191.18H183V447H191.18V488H311.82V447H320V426Z" fill="white" stroke="#8C8C8C" stroke-linecap="round" stroke-linejoin="round"/>
<path d="M390.71 488C392.43 485.416 393.597 482.505 394.138 479.449C394.678 476.392 394.58 473.257 393.85 470.241C393.121 467.224 391.775 464.391 389.897 461.919C388.019 459.448 385.651 457.392 382.94 455.88C380.229 454.368 377.235 453.434 374.146 453.135C371.057 452.836 367.939 453.18 364.989 454.145C362.039 455.109 359.32 456.674 357.004 458.74C354.688 460.806 352.824 463.329 351.53 466.15C350.563 463.525 348.903 461.211 346.725 459.455C344.547 457.699 341.934 456.566 339.164 456.177C336.394 455.788 333.57 456.158 330.993 457.247C328.416 458.335 326.182 460.103 324.53 462.36C323.643 461.13 322.5 460.106 321.179 459.361C319.858 458.615 318.392 458.164 316.88 458.04C317.307 456.749 317.526 455.399 317.53 454.04C317.523 451.824 316.95 449.646 315.865 447.714C314.78 445.782 313.219 444.159 311.33 443C311.437 442.188 311.494 441.369 311.5 440.55C311.499 435.778 309.747 431.173 306.577 427.607C303.407 424.04 299.039 421.761 294.3 421.2L291.38 355.55H270.19L266.92 418.21L263.33 348.21H238.85L234.71 416.76L232 355.5H210.81L207.38 421H207C201.828 421 196.868 423.054 193.211 426.711C189.555 430.368 187.5 435.328 187.5 440.5C187.5 440.79 187.5 441.08 187.5 441.37C186.518 441.132 185.511 441.008 184.5 441C181.052 441 177.746 442.37 175.308 444.808C172.87 447.246 171.5 450.552 171.5 454C171.504 455.359 171.723 456.709 172.15 458C170.638 458.124 169.172 458.575 167.851 459.321C166.53 460.066 165.387 461.09 164.5 462.32C162.848 460.063 160.614 458.295 158.037 457.207C155.46 456.118 152.637 455.748 149.866 456.137C147.096 456.526 144.483 457.659 142.305 459.415C140.128 461.171 138.467 463.485 137.5 466.11C136.182 463.324 134.305 460.838 131.987 458.807C129.668 456.776 126.957 455.243 124.021 454.303C121.085 453.363 117.988 453.037 114.921 453.344C111.854 453.65 108.882 454.584 106.191 456.087C103.5 457.59 101.146 459.63 99.276 462.08C97.4057 464.53 96.0589 467.338 95.319 470.331C94.5791 473.323 94.4619 476.435 94.9747 479.475C95.4875 482.514 96.6194 485.416 98.3001 488H390.71Z" fill="#BA68C8"/>
<path d="M376.68 488C375.571 485.816 373.988 483.907 372.047 482.412C370.106 480.917 367.856 479.873 365.461 479.358C363.066 478.842 360.586 478.868 358.202 479.432C355.818 479.997 353.59 481.086 351.68 482.62C351.131 480.967 350.188 479.473 348.932 478.265C347.677 477.058 346.147 476.174 344.474 475.69C342.801 475.206 341.035 475.136 339.329 475.486C337.623 475.836 336.027 476.596 334.68 477.7C334.133 475.006 332.92 472.492 331.152 470.386C329.385 468.281 327.119 466.651 324.56 465.645C322.002 464.639 319.232 464.289 316.504 464.627C313.776 464.965 311.176 465.98 308.94 467.58C308.708 464.351 307.674 461.23 305.932 458.5C304.19 455.771 301.795 453.518 298.964 451.947C296.133 450.375 292.955 449.535 289.717 449.5C286.479 449.466 283.284 450.239 280.42 451.75C277.506 447.076 273.484 443.192 268.71 440.444C263.936 437.696 258.558 436.167 253.053 435.994C247.547 435.821 242.084 437.009 237.147 439.452C232.21 441.895 227.952 445.518 224.75 450C223.121 447.763 221.034 445.898 218.628 444.53C216.223 443.162 213.553 442.322 210.797 442.066C208.042 441.809 205.263 442.143 202.646 443.045C200.03 443.946 197.635 445.394 195.621 447.293C193.608 449.192 192.022 451.498 190.969 454.057C189.916 456.617 189.421 459.371 189.515 462.137C189.61 464.903 190.292 467.617 191.517 470.099C192.742 472.581 194.482 474.773 196.62 476.53C196.264 477.444 195.99 478.388 195.8 479.35C193.799 477.98 191.519 477.069 189.125 476.681C186.73 476.293 184.28 476.439 181.948 477.108C179.617 477.776 177.461 478.951 175.636 480.549C173.811 482.147 172.361 484.128 171.39 486.35C170.422 485.023 169.162 483.935 167.707 483.172C166.252 482.408 164.641 481.989 162.998 481.946C161.356 481.904 159.725 482.239 158.233 482.926C156.74 483.614 155.426 484.634 154.39 485.91C152.746 483.609 150.537 481.771 147.976 480.571C145.414 479.372 142.588 478.852 139.767 479.062C136.947 479.272 134.228 480.205 131.873 481.77C129.518 483.336 127.606 485.481 126.32 488H376.68Z" fill="#BA68C8"/>
<path opacity="0.3" d="M376.68 488C375.571 485.816 373.988 483.907 372.047 482.412C370.106 480.917 367.856 479.873 365.461 479.358C363.066 478.842 360.586 478.868 358.202 479.432C355.818 479.997 353.59 481.086 351.68 482.62C351.131 480.967 350.188 479.473 348.932 478.265C347.677 477.058 346.147 476.174 344.474 475.69C342.801 475.206 341.035 475.136 339.329 475.486C337.623 475.836 336.027 476.596 334.68 477.7C334.133 475.006 332.92 472.492 331.152 470.386C329.385 468.281 327.119 466.651 324.56 465.645C322.002 464.639 319.232 464.289 316.504 464.627C313.776 464.965 311.176 465.98 308.94 467.58C308.708 464.351 307.674 461.23 305.932 458.5C304.19 455.771 301.795 453.518 298.964 451.947C296.133 450.375 292.955 449.535 289.717 449.5C286.479 449.466 283.284 450.239 280.42 451.75C277.506 447.076 273.484 443.192 268.71 440.444C263.936 437.696 258.558 436.167 253.053 435.994C247.547 435.821 242.084 437.009 237.147 439.452C232.21 441.895 227.952 445.518 224.75 450C223.121 447.763 221.034 445.898 218.628 444.53C216.223 443.162 213.553 442.322 210.797 442.066C208.042 441.809 205.263 442.143 202.646 443.045C200.03 443.946 197.635 445.394 195.621 447.293C193.608 449.192 192.022 451.498 190.969 454.057C189.916 456.617 189.421 459.371 189.515 462.137C189.61 464.903 190.292 467.617 191.517 470.099C192.742 472.581 194.482 474.773 196.62 476.53C196.264 477.444 195.99 478.388 195.8 479.35C193.799 477.98 191.519 477.069 189.125 476.681C186.73 476.293 184.28 476.439 181.948 477.108C179.617 477.776 177.461 478.951 175.636 480.549C173.811 482.147 172.361 484.128 171.39 486.35C170.422 485.023 169.162 483.935 167.707 483.172C166.252 482.408 164.641 481.989 162.998 481.946C161.356 481.904 159.725 482.239 158.233 482.926C156.74 483.614 155.426 484.634 154.39 485.91C152.746 483.609 150.537 481.771 147.976 480.571C145.414 479.372 142.588 478.852 139.767 479.062C136.947 479.272 134.228 480.205 131.873 481.77C129.518 483.336 127.606 485.481 126.32 488H376.68Z" fill="black"/>
<path d="M232.48 331.71H210.32L207.55 340.34H235.25L232.48 331.71Z" fill="#D9D9D9" stroke="#263238" stroke-linecap="round" stroke-linejoin="round"/>
<path d="M229.88 346.88H212.93L210.81 355.5H232L229.88 346.88Z" fill="#263238" stroke="#263238" stroke-linecap="round" stroke-linejoin="round"/>
<path d="M232.41 347.09H210.39L207.64 340.34H235.17L232.41 347.09Z" fill="#BA68C8" stroke="#263238" stroke-linecap="round" stroke-linejoin="round"/>
<path d="M232.87 185.9H209.94V332.84H232.87V185.9Z" fill="white" stroke="#263238" stroke-linecap="round" stroke-linejoin="round"/>
<path d="M225.88 193.82H216.28V197.1H225.88V193.82Z" fill="#263238"/>
<path d="M225.88 198.5H216.28V201.78H225.88V198.5Z" fill="#263238"/>
<path d="M221.4 158.48C220.343 158.479 219.315 158.824 218.472 159.461C217.629 160.098 217.018 160.993 216.73 162.01L209.94 186.01H232.87L226.07 162.01C225.782 160.993 225.171 160.098 224.328 159.461C223.485 158.824 222.457 158.479 221.4 158.48Z" fill="#D9D9D9" stroke="#263238" stroke-linecap="round" stroke-linejoin="round"/>
<path d="M292.09 331.71H269.94L267.17 340.34H294.86L292.09 331.71Z" fill="#D9D9D9" stroke="#263238" stroke-linecap="round" stroke-linejoin="round"/>
<path d="M289.49 346.88H272.54L270.42 355.5H291.61L289.49 346.88Z" fill="#263238" stroke="#263238" stroke-linecap="round" stroke-linejoin="round"/>
<path d="M292.03 347.09H270L267.25 340.34H294.78L292.03 347.09Z" fill="#BA68C8" stroke="#263238" stroke-linecap="round" stroke-linejoin="round"/>
<path d="M292.48 185.9H269.55V332.84H292.48V185.9Z" fill="white" stroke="#263238" stroke-linecap="round" stroke-linejoin="round"/>
<path d="M279.5 200C279.5 198.72 280.14 197.89 281.42 197.89C282.7 197.89 283.35 198.72 283.35 200V204.33C283.35 205.61 282.72 206.45 281.42 206.45C280.12 206.45 279.5 205.61 279.5 204.33V200ZM280.42 204.39C280.42 205.15 280.75 205.6 281.42 205.6C282.09 205.6 282.42 205.15 282.42 204.39V200C282.42 199.24 282.1 198.78 281.42 198.78C280.74 198.78 280.42 199.24 280.42 200V204.39Z" fill="#263238"/>
<path d="M280.52 215.82C280.644 215.601 280.826 215.42 281.047 215.298C281.268 215.176 281.518 215.118 281.77 215.13C282.85 215.13 283.33 215.92 283.33 217.13V218.77C283.33 220.05 282.72 220.89 281.43 220.89C280.14 220.89 279.55 220.05 279.55 218.77V218.21H280.42V218.83C280.42 219.59 280.74 220.04 281.42 220.04C282.1 220.04 282.42 219.59 282.42 218.83V217.2C282.42 216.44 282.11 215.99 281.42 215.99C281.294 215.976 281.166 215.989 281.045 216.028C280.924 216.067 280.812 216.131 280.718 216.216C280.623 216.301 280.548 216.405 280.497 216.521C280.445 216.637 280.419 216.763 280.42 216.89V217.08H279.54L279.77 212.41H283.08V213.25H280.61L280.52 215.82Z" fill="#263238"/>
<path d="M283.34 228.82V229H282.46V228.78C282.46 228.02 282.15 227.58 281.46 227.58C280.77 227.58 280.46 228.04 280.46 228.93V230.82C280.556 230.543 280.74 230.305 280.983 230.142C281.227 229.98 281.518 229.902 281.81 229.92C282.89 229.92 283.37 230.7 283.37 231.92V233.19C283.37 234.47 282.74 235.31 281.45 235.31C280.16 235.31 279.52 234.47 279.52 233.19V228.91C279.52 227.58 280.12 226.75 281.45 226.75C282.78 226.75 283.34 227.54 283.34 228.82ZM280.45 232V233.26C280.45 234.02 280.76 234.47 281.45 234.47C282.14 234.47 282.45 234.02 282.45 233.26V232C282.45 231.25 282.13 230.79 281.45 230.79C280.77 230.79 280.45 231.21 280.45 232Z" fill="#263238"/>
<path d="M283.34 243.23V247.51C283.34 248.84 282.74 249.68 281.4 249.68C280.06 249.68 279.5 248.86 279.5 247.57V247.42H280.38V247.63C280.38 248.39 280.7 248.83 281.38 248.83C282.06 248.83 282.38 248.38 282.38 247.49V245.61C282.282 245.884 282.097 246.119 281.853 246.278C281.61 246.437 281.32 246.511 281.03 246.49C279.95 246.49 279.47 245.73 279.47 244.49V243.2C279.47 241.92 280.09 241.09 281.39 241.09C282.69 241.09 283.34 242 283.34 243.23ZM280.41 243.23V244.49C280.41 245.25 280.74 245.7 281.41 245.7C282.08 245.7 282.41 245.25 282.41 244.49V243.23C282.41 242.47 282.1 242.02 281.41 242.02C280.72 242.02 280.41 242.42 280.41 243.18V243.23Z" fill="#263238"/>
<path d="M281.38 260.38L280 264H279.11L280.8 259.67L279.22 255.6H280.22L281.52 258.96L282.83 255.6H283.7L282.13 259.67L283.81 264H282.81L281.38 260.38Z" fill="#263238"/>
<path d="M281 158.48C279.944 158.481 278.917 158.826 278.074 159.463C277.231 160.1 276.619 160.994 276.33 162.01L269.54 186.01H292.47L285.67 162.01C285.382 160.993 284.771 160.098 283.928 159.461C283.085 158.824 282.057 158.479 281 158.48Z" fill="#D9D9D9" stroke="#263238" stroke-linecap="round" stroke-linejoin="round"/>
<path d="M266.43 55.8501H235.65V103.48H266.43V55.8501Z" fill="white" stroke="#263238" stroke-linecap="round" stroke-linejoin="round"/>
<path d="M263.36 109.95H238.73L235.65 103.56H266.44L263.36 109.95Z" fill="#BA68C8" stroke="#263238" stroke-linecap="round" stroke-linejoin="round"/>
<path d="M263.36 169.56H238.73L235.65 163.17H266.44L263.36 169.56Z" fill="#263238" stroke="#263238" stroke-linecap="round" stroke-linejoin="round"/>
<path d="M266.43 116.23H235.65V163.86H266.43V116.23Z" fill="white" stroke="#263238" stroke-linecap="round" stroke-linejoin="round"/>
<path d="M263.36 109.75H238.73L235.65 116.14H266.44L263.36 109.75Z" fill="#D9D9D9" stroke="#263238" stroke-linecap="round" stroke-linejoin="round"/>
<path d="M266.43 175.84H235.65V329.99H266.43V175.84Z" fill="white" stroke="#263238" stroke-linecap="round" stroke-linejoin="round"/>
<path d="M235.68 190H266.45" stroke="#263238" stroke-linecap="round" stroke-linejoin="round"/>
<path d="M235.68 212.38H266.45" stroke="#263238" stroke-linecap="round" stroke-linejoin="round"/>
<path d="M235.68 234.76H266.45" stroke="#263238" stroke-linecap="round" stroke-linejoin="round"/>
<path d="M235.68 257.14H266.45" stroke="#263238" stroke-linecap="round" stroke-linejoin="round"/>
<path d="M235.68 279.51H266.45" stroke="#263238" stroke-linecap="round" stroke-linejoin="round"/>
<path d="M250.6 257.14V279.05" stroke="#263238" stroke-linecap="round" stroke-linejoin="round"/>
<path d="M261.29 339.88H241.17L238.66 348.5H263.81L261.29 339.88Z" fill="#263238" stroke="#263238" stroke-linecap="round" stroke-linejoin="round"/>
<path d="M263.27 340.51H238.81L235.76 330H266.33L263.27 340.51Z" fill="#BA68C8" stroke="#263238" stroke-linecap="round" stroke-linejoin="round"/>
<path d="M251 309.66C247.826 309.673 244.787 310.944 242.547 313.193C240.307 315.442 239.05 318.486 239.05 321.66V339.95H263V321.62C262.989 318.444 261.72 315.402 259.471 313.161C257.222 310.919 254.176 309.66 251 309.66V309.66Z" stroke="#263238" stroke-linecap="round" stroke-linejoin="round"/>
<path d="M263.36 169.37H238.73L235.65 175.75H266.44L263.36 169.37Z" fill="#263238" stroke="#263238" stroke-linecap="round" stroke-linejoin="round"/>
<path d="M251 27C249.218 27.0046 247.484 27.5744 246.046 28.6274C244.608 29.6804 243.542 31.1624 243 32.86L235.63 55.93H266.41L259.05 32.86C258.506 31.1543 257.432 29.6664 255.984 28.6126C254.537 27.5588 252.791 26.994 251 27Z" fill="#D9D9D9" stroke="#263238" stroke-linecap="round" stroke-linejoin="round"/>
<path d="M238.73 285.65H229.92V288.24H238.73V285.65Z" fill="white" stroke="#263238" stroke-linecap="round" stroke-linejoin="round"/>
<path d="M271.91 285.65H263.1V288.24H271.91V285.65Z" fill="white" stroke="#263238" stroke-linecap="round" stroke-linejoin="round"/>
<path d="M38 488H465" stroke="#263238" stroke-linecap="round" stroke-linejoin="round"/>
</svg>
